<svg width="232" height="62" viewBox="0 0 232 62" fill="none" xmlns="http://www.w3.org/2000/svg">
<path d="M12.4648 43V17.4062H20.3398C22.5898 17.4062 24.5996 17.916 26.3691 18.9355C28.1504 19.9434 29.5391 21.3848 30.5352 23.2598C31.5312 25.123 32.0293 27.2441 32.0293 29.623V30.8008C32.0293 33.1797 31.5371 35.2949 30.5527 37.1465C29.5801 38.998 28.2031 40.4336 26.4219 41.4531C24.6406 42.4727 22.6309 42.9883 20.3926 43H12.4648ZM17.7383 21.6777V38.7637H20.2871C22.3496 38.7637 23.9258 38.0898 25.0156 36.7422C26.1055 35.3945 26.6621 33.4668 26.6855 30.959V29.6055C26.6855 27.0039 26.1465 25.0352 25.0684 23.6992C23.9902 22.3516 22.4141 21.6777 20.3398 21.6777H17.7383ZM46.5664 43C46.332 42.543 46.1621 41.9746 46.0566 41.2949C44.8262 42.666 43.2266 43.3516 41.2578 43.3516C39.3945 43.3516 37.8477 42.8125 36.6172 41.7344C35.3984 40.6562 34.7891 39.2969 34.7891 37.6562C34.7891 35.6406 35.5332 34.0938 37.0215 33.0156C38.5215 31.9375 40.6836 31.3926 43.5078 31.3809H45.8457V30.291C45.8457 29.4121 45.6172 28.709 45.1602 28.1816C44.7148 27.6543 44.0059 27.3906 43.0332 27.3906C42.1777 27.3906 41.5039 27.5957 41.0117 28.0059C40.5312 28.416 40.291 28.9785 40.291 29.6934H35.2109C35.2109 28.5918 35.5508 27.5723 36.2305 26.6348C36.9102 25.6973 37.8711 24.9648 39.1133 24.4375C40.3555 23.8984 41.75 23.6289 43.2969 23.6289C45.6406 23.6289 47.498 24.2207 48.8691 25.4043C50.252 26.5762 50.9434 28.2285 50.9434 30.3613V38.6055C50.9551 40.4102 51.207 41.7754 51.6992 42.7012V43H46.5664ZM42.3652 39.4668C43.1152 39.4668 43.8066 39.3027 44.4395 38.9746C45.0723 38.6348 45.541 38.1836 45.8457 37.6211V34.3516H43.9473C41.4043 34.3516 40.0508 35.2305 39.8867 36.9883L39.8691 37.2871C39.8691 37.9199 40.0918 38.4414 40.5371 38.8516C40.9824 39.2617 41.5918 39.4668 42.3652 39.4668ZM59.5215 23.9805L59.6797 26.1777C61.0391 24.4785 62.8613 23.6289 65.1465 23.6289C67.1621 23.6289 68.6621 24.2207 69.6465 25.4043C70.6309 26.5879 71.1348 28.3574 71.1582 30.7129V43H66.0781V30.8359C66.0781 29.7578 65.8438 28.9785 65.375 28.498C64.9062 28.0059 64.127 27.7598 63.0371 27.7598C61.6074 27.7598 60.5352 28.3691 59.8203 29.5879V43H54.7402V23.9805H59.5215ZM80.3867 43H75.2891V23.9805H80.3867V43ZM74.9902 19.0586C74.9902 18.2969 75.2422 17.6699 75.7461 17.1777C76.2617 16.6855 76.959 16.4395 77.8379 16.4395C78.7051 16.4395 79.3965 16.6855 79.9121 17.1777C80.4277 17.6699 80.6855 18.2969 80.6855 19.0586C80.6855 19.832 80.4219 20.4648 79.8945 20.957C79.3789 21.4492 78.6934 21.6953 77.8379 21.6953C76.9824 21.6953 76.291 21.4492 75.7637 20.957C75.248 20.4648 74.9902 19.832 74.9902 19.0586ZM93.3418 43.3516C90.5527 43.3516 88.2793 42.4961 86.5215 40.7852C84.7754 39.0742 83.9023 36.7949 83.9023 33.9473V33.4551C83.9023 31.5449 84.2715 29.8398 85.0098 28.3398C85.748 26.8281 86.791 25.668 88.1387 24.8594C89.498 24.0391 91.0449 23.6289 92.7793 23.6289C95.3809 23.6289 97.4258 24.4492 98.9141 26.0898C100.414 27.7305 101.164 30.0566 101.164 33.0684V35.1426H89.0527C89.2168 36.3848 89.709 37.3809 90.5293 38.1309C91.3613 38.8809 92.4102 39.2559 93.6758 39.2559C95.6328 39.2559 97.1621 38.5469 98.2637 37.1289L100.76 39.9238C99.998 41.002 98.9668 41.8457 97.666 42.4551C96.3652 43.0527 94.9238 43.3516 93.3418 43.3516ZM92.7617 27.7422C91.7539 27.7422 90.9336 28.082 90.3008 28.7617C89.6797 29.4414 89.2812 30.4141 89.1055 31.6797H96.1719V31.2754C96.1484 30.1504 95.8438 29.2832 95.2578 28.6738C94.6719 28.0527 93.8398 27.7422 92.7617 27.7422ZM109.426 43H104.328V16H109.426V43ZM136.197 36.2852C136.197 35.2891 135.846 34.5273 135.143 34C134.439 33.4609 133.174 32.8984 131.346 32.3125C129.518 31.7148 128.07 31.1289 127.004 30.5547C124.098 28.9844 122.645 26.8691 122.645 24.209C122.645 22.8262 123.031 21.5957 123.805 20.5176C124.59 19.4277 125.709 18.5781 127.162 17.9688C128.627 17.3594 130.268 17.0547 132.084 17.0547C133.912 17.0547 135.541 17.3887 136.971 18.0566C138.4 18.7129 139.508 19.6445 140.293 20.8516C141.09 22.0586 141.488 23.4297 141.488 24.9648H136.215C136.215 23.793 135.846 22.8848 135.107 22.2402C134.369 21.584 133.332 21.2559 131.996 21.2559C130.707 21.2559 129.705 21.5312 128.99 22.082C128.275 22.6211 127.918 23.3359 127.918 24.2266C127.918 25.0586 128.334 25.7559 129.166 26.3184C130.01 26.8809 131.246 27.4082 132.875 27.9004C135.875 28.8027 138.061 29.9219 139.432 31.2578C140.803 32.5938 141.488 34.2578 141.488 36.25C141.488 38.4648 140.65 40.2051 138.975 41.4707C137.299 42.7246 135.043 43.3516 132.207 43.3516C130.238 43.3516 128.445 42.9941 126.828 42.2793C125.211 41.5527 123.975 40.5625 123.119 39.3086C122.275 38.0547 121.854 36.6016 121.854 34.9492H127.145C127.145 37.7734 128.832 39.1855 132.207 39.1855C133.461 39.1855 134.439 38.9336 135.143 38.4297C135.846 37.9141 136.197 37.1992 136.197 36.2852ZM151.648 35.3711L149.82 37.1992V43H144.74V16H149.82V30.959L150.805 29.6934L155.674 23.9805H161.773L154.9 31.9082L162.371 43H156.535L151.648 35.3711ZM169.332 43H164.234V16H169.332V43ZM180.635 35.8105L184.15 23.9805H189.6L181.953 45.9531L181.531 46.9551C180.395 49.4395 178.52 50.6816 175.906 50.6816C175.168 50.6816 174.418 50.5703 173.656 50.3477V46.498L174.43 46.5156C175.391 46.5156 176.105 46.3691 176.574 46.0762C177.055 45.7832 177.43 45.2969 177.699 44.6172L178.297 43.0527L171.635 23.9805H177.102L180.635 35.8105ZM202.344 43C202.109 42.543 201.939 41.9746 201.834 41.2949C200.604 42.666 199.004 43.3516 197.035 43.3516C195.172 43.3516 193.625 42.8125 192.395 41.7344C191.176 40.6562 190.566 39.2969 190.566 37.6562C190.566 35.6406 191.311 34.0938 192.799 33.0156C194.299 31.9375 196.461 31.3926 199.285 31.3809H201.623V30.291C201.623 29.4121 201.395 28.709 200.938 28.1816C200.492 27.6543 199.783 27.3906 198.811 27.3906C197.955 27.3906 197.281 27.5957 196.789 28.0059C196.309 28.416 196.068 28.9785 196.068 29.6934H190.988C190.988 28.5918 191.328 27.5723 192.008 26.6348C192.688 25.6973 193.648 24.9648 194.891 24.4375C196.133 23.8984 197.527 23.6289 199.074 23.6289C201.418 23.6289 203.275 24.2207 204.646 25.4043C206.029 26.5762 206.721 28.2285 206.721 30.3613V38.6055C206.732 40.4102 206.984 41.7754 207.477 42.7012V43H202.344ZM198.143 39.4668C198.893 39.4668 199.584 39.3027 200.217 38.9746C200.85 38.6348 201.318 38.1836 201.623 37.6211V34.3516H199.725C197.182 34.3516 195.828 35.2305 195.664 36.9883L195.646 37.2871C195.646 37.9199 195.869 38.4414 196.314 38.8516C196.76 39.2617 197.369 39.4668 198.143 39.4668ZM221.311 28.7441C220.619 28.6504 220.01 28.6035 219.482 28.6035C217.561 28.6035 216.301 29.2539 215.703 30.5547V43H210.623V23.9805H215.422L215.562 26.248C216.582 24.502 217.994 23.6289 219.799 23.6289C220.361 23.6289 220.889 23.7051 221.381 23.8574L221.311 28.7441Z" fill="#C4C4C4" fill-opacity="0.7"/>
</svg>
